<?xml version="1.0" standalone="no"?>
<!DOCTYPE svg PUBLIC "-//W3C//DTD SVG 20010904//EN"
 "http://www.w3.org/TR/2001/REC-SVG-20010904/DTD/svg10.dtd">
<svg version="1.0" xmlns="http://www.w3.org/2000/svg"
 width="700.000000pt" height="700.000000pt" viewBox="0 0 700.000000 700.000000"
 preserveAspectRatio="xMidYMid meet">
<metadata>
Created by potrace 1.14, written by Peter Selinger 2001-2017
</metadata>
<g transform="translate(0.000000,700.000000) scale(0.100000,-0.100000)"
fill="#000000" stroke="none">
<path d="M1130 4616 l0 -1691 33 -35 c18 -19 113 -125 212 -235 99 -110 184
-205 190 -211 33 -36 162 -179 175 -194 8 -10 52 -58 97 -107 l83 -90 1014 0
c791 0 1014 3 1008 12 -4 7 -41 50 -82 95 -41 46 -83 92 -93 104 -10 12 -33
37 -51 56 -17 19 -56 62 -86 96 -30 33 -91 100 -135 148 -44 49 -87 97 -95
107 -9 9 -48 53 -87 96 -39 43 -87 96 -107 118 l-36 40 0 450 c-1 248 -1 1009
0 1691 l0 1242 -1020 0 -1020 0 0 -1692z m2049 -1817 l31 -34 -1 -230 c0 -146
-4 -223 -9 -210 -5 11 -41 99 -80 195 -99 247 -96 240 -125 240 l-25 0 0 -305
0 -305 -27 -1 c-122 -2 -186 1 -193 8 -6 6 -67 232 -85 313 -10 46 -57 230
-66 258 -9 28 -15 33 -37 30 -19 -2 -28 -11 -34 -33 -18 -61 -88 -337 -119
-466 -12 -52 -26 -98 -30 -103 -5 -6 -296 -11 -386 -7 -17 1 -16 251 1 252 6
0 48 1 94 1 l82 0 0 44 c0 49 9 46 -111 46 l-77 0 0 90 0 89 62 -2 c128 -3
123 -5 124 45 l1 44 -119 0 -120 0 -1 -27 c0 -14 -1 -146 -1 -293 0 -148 -4
-268 -9 -268 -4 0 -12 6 -16 14 -4 8 -51 60 -104 117 -52 57 -113 124 -135
149 -21 24 -46 51 -55 60 -40 38 -288 318 -284 321 2 2 413 4 914 3 l910 0 30
-35z m186 -204 c22 -23 159 -176 187 -207 22 -25 179 -197 197 -215 7 -8 11
-16 8 -19 -4 -4 -392 -8 -472 -5 -20 1 -20 7 -21 279 l0 277 41 -45 c22 -24
49 -54 60 -65z m-791 5 c3 -14 10 -43 16 -65 19 -72 21 -80 27 -111 l5 -31
-62 -2 c-55 -1 -61 0 -56 16 2 10 17 64 32 121 15 56 28 101 30 99 1 -1 5 -14
8 -27z m546 -239 c44 -112 79 -205 76 -208 -4 -4 -89 -7 -146 -4 l-25 1 0 220
c0 120 3 214 6 207 4 -7 44 -104 89 -216z m-472 -66 c8 -7 42 -138 37 -143 -4
-4 -236 -5 -240 0 -2 2 4 35 14 73 14 56 21 70 40 75 30 7 141 4 149 -5z"/>
<path d="M3180 6301 c0 -6 164 -193 269 -306 40 -43 117 -129 261 -289 19 -21
46 -51 60 -66 90 -98 166 -185 175 -199 6 -10 10 -625 10 -1701 l0 -1685 1015
-1 c558 -1 1017 2 1020 7 3 4 5 765 5 1692 -1 1463 -3 1686 -15 1699 -8 8 -51
54 -95 103 -103 114 -108 119 -185 206 -36 40 -69 78 -75 84 -29 31 -108 120
-175 195 -41 46 -86 95 -99 109 -13 14 -50 56 -83 92 l-59 67 -1015 0 c-558 0
-1014 -3 -1014 -7z m2013 -92 c6 -6 201 -223 207 -229 3 -3 48 -52 100 -110
52 -58 97 -107 100 -110 3 -3 46 -50 95 -105 50 -55 96 -106 103 -113 6 -7 12
-14 12 -15 0 -2 -1772 0 -1816 2 -14 1 -57 41 -127 119 -57 64 -117 131 -132
147 -15 17 -44 48 -64 70 -172 190 -222 246 -263 289 -33 36 -43 52 -33 56 17
6 1814 5 1818 -1z"/>
<path d="M411 1681 c4 -14 31 -100 59 -189 28 -90 59 -192 70 -225 29 -93 157
-506 197 -637 19 -63 37 -117 40 -120 6 -7 283 -7 284 0 2 12 10 42 44 165 20
72 45 162 55 200 10 39 38 138 61 220 23 83 48 176 57 208 15 59 20 64 26 31
2 -11 22 -84 44 -164 22 -80 43 -158 47 -175 5 -16 9 -34 11 -40 1 -5 25 -92
53 -193 28 -101 56 -200 62 -221 l11 -37 140 1 141 0 74 240 c41 132 93 299
115 370 22 72 41 135 43 140 1 6 5 17 8 25 3 8 17 56 32 105 15 50 38 125 52
168 14 43 26 84 27 90 2 7 6 20 11 30 4 10 4 21 0 25 -3 4 -60 7 -126 8 l-119
0 -21 -69 c-11 -39 -22 -77 -25 -86 -2 -9 -15 -56 -30 -106 -14 -49 -28 -97
-29 -105 -2 -8 -4 -15 -5 -15 -1 0 -3 -7 -5 -15 -9 -33 -24 -89 -45 -160 -12
-41 -24 -82 -26 -90 -2 -8 -13 -46 -24 -85 -22 -73 -27 -91 -35 -126 -6 -28
-13 -35 -19 -18 -3 8 -25 91 -50 184 -25 94 -59 222 -76 285 -17 63 -32 122
-34 130 -9 35 -58 218 -67 247 l-10 31 -134 -1 c-73 -1 -136 -4 -139 -7 -2 -3
-7 -17 -10 -30 -3 -14 -15 -61 -27 -105 -11 -44 -22 -84 -24 -90 -1 -5 -5 -17
-8 -25 -3 -8 -19 -69 -36 -135 -17 -66 -43 -163 -57 -215 -14 -52 -27 -103
-30 -112 -2 -10 -6 -26 -9 -35 -2 -10 -12 -47 -22 -83 l-17 -65 -17 65 c-9 36
-27 97 -38 135 -12 39 -24 79 -26 90 -3 11 -21 74 -40 140 -20 66 -37 127 -39
135 -4 14 -82 288 -91 320 -4 13 -27 16 -134 16 l-129 1 9 -26z"/>
<path d="M2680 1696 c-5 -5 -10 -13 -10 -17 0 -4 -74 -193 -164 -421 -90 -227
-184 -465 -209 -528 -25 -63 -51 -128 -58 -145 -7 -16 -13 -33 -13 -37 -1 -3
-4 -10 -8 -14 -25 -24 -2 -29 130 -29 75 0 142 3 147 7 6 3 33 65 60 137 44
115 53 130 75 133 14 2 113 1 220 -2 l194 -5 53 -129 c29 -71 56 -132 59 -135
7 -8 284 -8 284 -1 0 6 -123 319 -139 355 -5 11 -55 137 -111 280 -56 143
-108 274 -116 290 -7 17 -34 84 -60 151 l-46 121 -139 -1 c-81 0 -143 -4 -149
-10z m180 -371 c13 -33 29 -73 35 -90 77 -186 93 -235 77 -236 -63 -3 -294 -1
-298 3 -3 3 27 88 67 189 39 101 74 190 77 197 7 19 16 6 42 -63z"/>
<path d="M3897 1693 c-264 -44 -399 -257 -392 -615 3 -131 11 -186 41 -273 53
-152 157 -250 304 -285 39 -10 148 -14 377 -15 284 -1 322 1 325 14 2 9 3 169
3 356 l-1 340 -284 0 -285 0 -1 -90 c0 -49 2 -97 4 -106 3 -14 24 -16 161 -15
l157 1 -1 -135 c-1 -74 -3 -139 -3 -143 -1 -4 -75 -6 -164 -4 -180 4 -234 18
-282 74 -25 29 -63 125 -72 183 -8 50 -8 206 -1 265 14 123 78 205 180 232 12
4 150 9 306 12 l285 6 0 105 0 105 -290 0 c-192 1 -317 -3 -367 -12z"/>
<path d="M4750 1105 l0 -600 108 1 c59 1 112 2 117 3 7 1 10 142 10 426 0 234
3 425 7 425 4 0 12 -19 18 -42 7 -22 24 -80 40 -128 23 -71 79 -248 85 -270 1
-3 4 -12 7 -20 5 -12 66 -208 82 -265 2 -5 4 -12 5 -15 1 -3 10 -30 20 -60
l18 -55 127 0 128 0 17 50 c10 28 18 52 19 55 1 8 13 42 27 80 11 30 14 39 15
53 0 1 50 148 110 327 l110 325 -3 -443 c-1 -289 1 -442 8 -443 6 -1 60 -2
120 -3 l110 -1 0 601 0 602 -179 -2 c-148 -1 -180 -4 -187 -16 -4 -8 -26 -76
-49 -150 -23 -74 -74 -232 -112 -350 -38 -118 -79 -244 -90 -280 -11 -36 -22
-72 -25 -80 -3 -8 -7 -21 -9 -28 -1 -8 -4 -16 -7 -18 -3 -4 -46 119 -53 151
-1 6 -25 84 -52 175 -28 91 -67 219 -87 285 -20 66 -40 131 -45 145 -5 14 -18
57 -29 96 l-21 71 -180 -1 -180 0 0 -601z"/>
<path d="M6288 1696 c-2 -6 -3 -276 -3 -601 l1 -590 124 0 125 0 0 600 0 600
-122 1 c-80 0 -123 -3 -125 -10z"/>
</g>
</svg>
